<svg xmlns="http://www.w3.org/2000/svg" viewBox="0 0 800 800" role="img" aria-label="Avatar placeholder">
  <defs>
    <linearGradient id="g" x1="0" x2="1" y1="0" y2="1">
      <stop offset="0%" stop-color="#fff8ef" />
      <stop offset="100%" stop-color="#efe3d2" />
    </linearGradient>
  </defs>
  <rect width="800" height="800" fill="url(#g)" />
  <circle cx="400" cy="310" r="150" fill="#f0d9c5" />
  <path d="M220 658c32-118 124-194 180-194 58 0 150 76 180 194" fill="#d88763" />
  <circle cx="400" cy="290" r="124" fill="#f7ead8" />
  <path d="M280 282c18-70 78-116 140-116s122 46 140 116c-16-18-30-26-46-34-20 54-82 92-164 100-34 4-56 0-70-10-2-20-2-36 0-56z" fill="#2d2a26" opacity=".82" />
  <circle cx="352" cy="300" r="8" fill="#2d2a26" />
  <circle cx="448" cy="300" r="8" fill="#2d2a26" />
  <path d="M356 364c24 20 64 20 88 0" fill="none" stroke="#9b5b3f" stroke-linecap="round" stroke-width="10" />
  <text x="400" y="735" text-anchor="middle" font-size="58" font-family="Inter, Arial, sans-serif" fill="#746f66">sikm</text>
</svg>
